<svg width="127" height="31" viewBox="0 0 127 31" fill="none" xmlns="http://www.w3.org/2000/svg">
<path d="M32.3738 9.17347C35.0513 9.17347 37.4021 10.343 39.0233 11.9987V9.75103H43.545V29.0993H39.0233V26.8661L38.9651 26.9311C37.4426 28.5867 35.1831 29.6071 32.5005 29.6721L32.3586 29.6745H32.2243C26.1498 29.6745 21.965 25.427 21.965 19.4228C21.9625 13.4787 26.3195 9.17347 32.3738 9.17347ZM80.0732 9.17347C82.7508 9.17347 85.0078 10.2468 86.629 11.9L86.7227 11.9963V9.74863H91.2444V29.0969H86.7227V26.8637L86.6645 26.9286C85.1421 28.5843 82.8825 29.6047 80.1999 29.6697L80.058 29.6721H79.9238C73.8492 29.6721 69.6645 25.4246 69.6645 19.4204C69.6619 13.4787 74.019 9.17347 80.0732 9.17347ZM67.4327 1.67241V29.0993H62.911V26.7674L62.8046 26.8613C60.8617 28.5554 58.7136 29.5975 56.3071 29.6721L56.1703 29.6745H56.0335C50.0097 29.6745 45.8502 25.439 45.8502 19.4228C45.8502 13.4258 50.1085 9.17107 56.1855 9.17107C58.5869 9.17107 60.8592 9.98687 62.45 11.308L62.5437 11.3875L62.6071 11.4428V1.67241H67.4327ZM116.171 8.64404C122.392 8.64404 127 12.9998 127 18.8957C127 24.7676 122.38 29.1474 116.171 29.1474C109.944 29.1474 105.379 24.7869 105.379 18.8957C105.379 12.9926 109.957 8.64404 116.171 8.64404ZM105.164 9.12534V13.2814L104.698 13.2838C101.516 13.3704 98.849 15.8034 98.7983 19.004V19.1003V29.0969H94.2336V19.1027C94.2336 13.2116 98.6185 9.20476 104.604 9.12534L104.787 9.12294H105.164V9.12534ZM9.80333 1.66519C14.9558 1.66519 18.5427 4.68053 18.5427 9.00743C18.5427 11.4284 17.4003 13.5846 15.4573 14.8215L15.3586 14.8817L15.4396 14.913C18.3857 16.0777 19.9081 18.4048 19.9816 21.3913L19.9841 21.5044V21.6127C19.9841 25.8072 16.2958 29.0319 11.2472 29.0969H11.0927H0V1.66278H9.80333V1.66519ZM80.5672 13.3247C77.1043 13.3247 74.5636 15.8587 74.5636 19.3891C74.5636 22.8954 77.117 25.4535 80.5672 25.4535C84.0655 25.4535 86.5708 22.9242 86.5708 19.3891C86.5708 15.8323 84.0781 13.3247 80.5672 13.3247ZM32.8678 13.3247C29.4049 13.3247 26.8642 15.8587 26.8642 19.3891C26.8642 22.8954 29.4176 25.4535 32.8678 25.4535C36.3661 25.4535 38.8713 22.9242 38.8713 19.3891C38.8713 15.8323 36.3787 13.3247 32.8678 13.3247ZM56.7555 13.3247C53.2926 13.3247 50.7519 15.8587 50.7519 19.3891C50.7519 22.8954 53.3053 25.4535 56.7555 25.4535C60.2538 25.4535 62.7591 22.9242 62.7591 19.3891C62.7591 15.8323 60.2664 13.3247 56.7555 13.3247ZM116.082 12.7351C112.645 12.7351 110.192 15.2451 110.192 18.7995C110.192 22.3322 112.657 24.8639 116.082 24.8639C119.53 24.8639 121.972 22.3467 121.972 18.7995C121.972 15.2306 119.542 12.7351 116.082 12.7351ZM10.7482 17.3075H4.83834V25.0083H10.5962C13.2408 25.0083 14.971 23.4127 14.971 21.1747C14.971 19.0209 13.2307 17.346 10.8343 17.3075H10.7482ZM9.60574 5.75624H4.95233V13.2164H9.75773C12.111 13.2164 13.8184 11.6089 13.8184 9.50316C13.8184 7.34935 12.182 5.79234 9.69694 5.75624H9.60574Z" fill="white"/>
<path d="M120.953 7.56809C122.767 7.56809 124.236 6.17231 124.236 4.44926C124.236 2.7262 122.767 1.33043 120.953 1.33043C119.14 1.33043 117.67 2.7262 117.67 4.44926C117.67 6.17231 119.14 7.56809 120.953 7.56809Z" fill="#FF1F6D"/>
</svg>
