<svg width="40" height="40" viewBox="0 0 40 40" fill="none" xmlns="http://www.w3.org/2000/svg">
<path d="M39.7702 19.9999C39.7702 23.9101 38.6107 27.7324 36.4383 30.9836C34.266 34.2348 31.1783 36.7688 27.5658 38.2651C23.9533 39.7615 19.9782 40.153 16.1431 39.3901C12.3081 38.6273 8.78541 36.7444 6.02051 33.9795C3.25561 31.2146 1.37269 27.6919 0.609858 23.8569C-0.152976 20.0218 0.238538 16.0467 1.73489 12.4342C3.23124 8.82169 5.76523 5.73402 9.01641 3.56165C12.2676 1.38929 16.0899 0.22979 20.0001 0.22979L20.0001 7.42505C17.513 7.42505 15.0818 8.16256 13.0139 9.5443C10.946 10.926 9.33421 12.89 8.38245 15.1877C7.43069 17.4855 7.18166 20.0139 7.66687 22.4531C8.15207 24.8924 9.34971 27.133 11.1083 28.8917C12.867 30.6503 15.1076 31.8479 17.5469 32.3331C19.9861 32.8183 22.5145 32.5693 24.8123 31.6176C27.11 30.6658 29.074 29.054 30.4557 26.9861C31.8374 24.9182 32.5749 22.487 32.5749 19.9999H39.7702Z" fill="url(#paint0_angular_1_3484)"/>
<defs>
<radialGradient id="paint0_angular_1_3484" cx="0" cy="0" r="1" gradientUnits="userSpaceOnUse" gradientTransform="translate(19.7436 19.7599) rotate(-89.2475) scale(19.5318)">
<stop stop-color="#F8F8F8"/>
<stop offset="0.744792" stop-color="white" stop-opacity="0"/>
</radialGradient>
</defs>
</svg>
