<svg width="80" height="80" viewBox="0 0 80 80" fill="none" xmlns="http://www.w3.org/2000/svg">
<path d="M80 40C80 32.0887 77.654 24.3552 73.2588 17.7772C68.8635 11.1992 62.6164 6.07232 55.3073 3.04482C47.9983 0.0173133 39.9556 -0.77482 32.1964 0.768589C24.4371 2.312 17.3098 6.12163 11.7157 11.7157C6.12163 17.3098 2.312 24.4371 0.76859 32.1964C-0.774819 39.9556 0.0173147 47.9983 3.04482 55.3073C6.07233 62.6164 11.1992 68.8635 17.7772 73.2588C24.3552 77.654 32.0888 80 40 80L40 65.4421C34.968 65.4421 30.049 63.95 25.8651 61.1544C21.6812 58.3587 18.4202 54.3852 16.4945 49.7363C14.5689 45.0873 14.065 39.9718 15.0467 35.0365C16.0284 30.1012 18.4515 25.5678 22.0097 22.0097C25.5678 18.4515 30.1012 16.0284 35.0365 15.0467C39.9718 14.065 45.0873 14.5689 49.7363 16.4945C54.3852 18.4202 58.3587 21.6812 61.1544 25.8651C63.95 30.049 65.4421 34.968 65.4421 40L80 40Z" fill="url(#paint0_angular_1_3483)"/>
<defs>
<radialGradient id="paint0_angular_1_3483" cx="0" cy="0" r="1" gradientUnits="userSpaceOnUse" gradientTransform="translate(39.481 40.4855) rotate(89.2475) scale(39.5179)">
<stop stop-color="#FF1F6D"/>
<stop offset="0.744792"/>
</radialGradient>
</defs>
</svg>
